<?xml version="1.0" encoding="UTF-8"?>
<svg id="Layer_1" data-name="Layer 1" xmlns="http://www.w3.org/2000/svg" xmlns:xlink="http://www.w3.org/1999/xlink" viewBox="0 0 1946.72 1087.51">
  <defs>
    <style>
      .cls-1 {
        clip-path: url(#clippath-2);
      }

      .cls-1, .cls-2, .cls-3, .cls-4, .cls-5, .cls-6, .cls-7, .cls-8, .cls-9, .cls-10, .cls-11, .cls-12, .cls-13, .cls-14, .cls-15, .cls-16, .cls-17, .cls-18, .cls-19, .cls-20, .cls-21, .cls-22, .cls-23, .cls-24, .cls-25, .cls-26, .cls-27, .cls-28, .cls-29, .cls-30, .cls-31, .cls-32, .cls-33, .cls-34, .cls-35, .cls-36, .cls-37, .cls-38, .cls-39, .cls-40, .cls-41, .cls-42 {
        fill: none;
      }

      .cls-2 {
        clip-path: url(#clippath-45);
      }

      .cls-3 {
        clip-path: url(#clippath-32);
      }

      .cls-43 {
        fill: #f5f5f5;
      }

      .cls-4 {
        clip-path: url(#clippath);
      }

      .cls-4, .cls-26 {
        clip-rule: evenodd;
      }

      .cls-5 {
        clip-path: url(#clippath-36);
      }

      .cls-6 {
        stroke-width: 3.09px;
      }

      .cls-6, .cls-14, .cls-21, .cls-32, .cls-35, .cls-39, .cls-41 {
        stroke: #f5f5f5;
        stroke-miterlimit: 10;
      }

      .cls-7 {
        clip-path: url(#clippath-21);
      }

      .cls-8 {
        clip-path: url(#clippath-28);
      }

      .cls-9 {
        clip-path: url(#clippath-43);
      }

      .cls-10 {
        clip-path: url(#clippath-18);
      }

      .cls-11 {
        clip-path: url(#clippath-40);
      }

      .cls-12 {
        clip-path: url(#clippath-27);
      }

      .cls-13 {
        clip-path: url(#clippath-37);
      }

      .cls-14 {
        stroke-width: 2.54px;
      }

      .cls-15 {
        clip-path: url(#clippath-34);
      }

      .cls-16 {
        clip-path: url(#clippath-35);
      }

      .cls-17 {
        clip-path: url(#clippath-22);
      }

      .cls-18 {
        clip-path: url(#clippath-24);
      }

      .cls-19 {
        clip-path: url(#clippath-26);
      }

      .cls-20 {
        clip-path: url(#clippath-31);
      }

      .cls-21 {
        stroke-width: .37px;
      }

      .cls-22 {
        clip-path: url(#clippath-42);
      }

      .cls-23 {
        clip-path: url(#clippath-16);
      }

      .cls-24 {
        clip-path: url(#clippath-44);
      }

      .cls-25 {
        clip-path: url(#clippath-29);
      }

      .cls-27 {
        clip-path: url(#clippath-33);
      }

      .cls-28 {
        clip-path: url(#clippath-19);
      }

      .cls-30 {
        clip-path: url(#clippath-20);
      }

      .cls-31 {
        clip-path: url(#clippath-23);
      }

      .cls-32 {
        stroke-width: .94px;
      }

      .cls-33 {
        clip-path: url(#clippath-17);
      }

      .cls-34 {
        clip-path: url(#clippath-38);
      }

      .cls-35 {
        stroke-width: 1.62px;
      }

      .cls-36 {
        clip-path: url(#clippath-1);
      }

      .cls-44 {
        fill: url(#linear-gradient);
      }

      .cls-37 {
        clip-path: url(#clippath-25);
      }

      .cls-38 {
        clip-path: url(#clippath-39);
      }

      .cls-39 {
        stroke-width: 3.11px;
      }

      .cls-40 {
        clip-path: url(#clippath-30);
      }

      .cls-41 {
        stroke-width: 2.59px;
      }

      .cls-42 {
        clip-path: url(#clippath-41);
      }
    </style>
    <clipPath id="clippath">
      <polygon class="cls-26" points="0 1095.03 1946.72 1095.03 1946.72 0 0 0 0 1095.03 0 1095.03"/>
    </clipPath>
    <clipPath id="clippath-1">
      <polygon class="cls-4" points="0 1095.03 1946.72 1095.03 1946.72 0 0 0 0 1095.03 0 1095.03"/>
    </clipPath>
    <clipPath id="clippath-2">
      <polygon class="cls-29" points="0 0 1946.72 0 1946.72 1095.03 0 1095.03 0 0 0 0"/>
    </clipPath>
    <linearGradient id="linear-gradient" x1="471.72" y1="-310.56" x2="1458.34" y2="1398.33" gradientUnits="userSpaceOnUse">
      <stop offset="0" stop-color="#bdd684"/>
      <stop offset="1" stop-color="#71bf97"/>
    </linearGradient>
    <clipPath id="clippath-3">
      <polygon class="cls-26" points="1.01 1094.02 1946.57 1094.02 1946.57 .04 1.01 .04 1.01 1094.02 1.01 1094.02"/>
    </clipPath>
    <clipPath id="clippath-16">
      <polygon class="cls-26" points="1.01 1094.02 1946.57 1094.02 1946.57 .04 1.01 .04 1.01 1094.02 1.01 1094.02"/>
    </clipPath>
    <clipPath id="clippath-17">
      <polygon class="cls-23" points="-608.51 -172.85 -474.7 418.58 163 274.4 29.2 -317.03 -608.51 -172.85 -608.51 -172.85"/>
    </clipPath>
    <clipPath id="clippath-18">
      <polygon class="cls-33" points="-608.51 -172.85 -474.7 418.58 163 274.4 29.2 -317.03 -608.51 -172.85 -608.51 -172.85"/>
    </clipPath>
    <clipPath id="clippath-19">
      <polygon class="cls-26" points="1.01 418.58 163 418.58 163 .04 1.01 .04 1.01 418.58 1.01 418.58"/>
    </clipPath>
    <clipPath id="clippath-20">
      <polygon class="cls-28" points="-608.51 -172.85 -474.7 418.58 163 274.4 29.2 -317.03 -608.51 -172.85 -608.51 -172.85"/>
    </clipPath>
    <clipPath id="clippath-21">
      <polygon class="cls-26" points="1.01 1094.02 1946.57 1094.02 1946.57 .04 1.01 .04 1.01 1094.02 1.01 1094.02"/>
    </clipPath>
    <clipPath id="clippath-22">
      <polygon class="cls-7" points="-42.27 16.7 598.97 144.27 717.37 -450.44 76.13 -578.01 -42.27 16.7 -42.27 16.7"/>
    </clipPath>
    <clipPath id="clippath-23">
      <polygon class="cls-17" points="-42.27 16.7 598.97 144.27 717.37 -450.44 76.13 -578.01 -42.27 16.7 -42.27 16.7"/>
    </clipPath>
    <clipPath id="clippath-24">
      <polygon class="cls-26" points="1.01 144.27 717.37 144.27 717.37 .04 1.01 .04 1.01 144.27 1.01 144.27"/>
    </clipPath>
    <clipPath id="clippath-25">
      <polygon class="cls-18" points="-42.27 16.7 598.97 144.27 717.37 -450.44 76.13 -578.01 -42.27 16.7 -42.27 16.7"/>
    </clipPath>
    <clipPath id="clippath-26">
      <polygon class="cls-26" points="1.01 1094.02 1946.57 1094.02 1946.57 .04 1.01 .04 1.01 1094.02 1.01 1094.02"/>
    </clipPath>
    <clipPath id="clippath-27">
      <polygon class="cls-19" points="516.21 -174.59 1050.09 202.63 1400.2 -292.51 866.32 -669.74 516.21 -174.59 516.21 -174.59"/>
    </clipPath>
    <clipPath id="clippath-28">
      <polygon class="cls-12" points="516.21 -174.59 1050.09 202.64 1400.2 -292.51 866.32 -669.74 516.21 -174.59 516.21 -174.59"/>
    </clipPath>
    <clipPath id="clippath-29">
      <polygon class="cls-26" points="516.21 202.63 1400.2 202.63 1400.2 .04 516.21 .04 516.21 202.63 516.21 202.63"/>
    </clipPath>
    <clipPath id="clippath-30">
      <polygon class="cls-25" points="516.21 -174.59 1050.09 202.64 1400.2 -292.51 866.32 -669.74 516.21 -174.59 516.21 -174.59"/>
    </clipPath>
    <clipPath id="clippath-31">
      <polygon class="cls-26" points="1.01 1094.02 1946.57 1094.02 1946.57 .04 1.01 .04 1.01 1094.02 1.01 1094.02"/>
    </clipPath>
    <clipPath id="clippath-32">
      <polygon class="cls-20" points="1104.18 -122.25 1438.4 439.41 1959.69 129.44 1625.47 -432.22 1104.18 -122.25 1104.18 -122.25"/>
    </clipPath>
    <clipPath id="clippath-33">
      <polygon class="cls-3" points="1104.18 -122.25 1438.4 439.41 1959.69 129.44 1625.47 -432.22 1104.18 -122.25 1104.18 -122.25"/>
    </clipPath>
    <clipPath id="clippath-34">
      <polygon class="cls-26" points="1104.18 439.41 1946.57 439.41 1946.57 .04 1104.18 .04 1104.18 439.41 1104.18 439.41"/>
    </clipPath>
    <clipPath id="clippath-35">
      <polygon class="cls-15" points="1104.18 -122.25 1438.4 439.41 1959.69 129.44 1625.47 -432.22 1104.18 -122.25 1104.18 -122.25"/>
    </clipPath>
    <clipPath id="clippath-36">
      <polygon class="cls-26" points="1.01 1094.02 1946.57 1094.02 1946.57 .04 1.01 .04 1.01 1094.02 1.01 1094.02"/>
    </clipPath>
    <clipPath id="clippath-37">
      <polygon class="cls-5" points="1620.25 164.84 1697.07 813.88 2299.46 742.63 2222.64 93.59 1620.25 164.84 1620.25 164.84"/>
    </clipPath>
    <clipPath id="clippath-38">
      <polygon class="cls-13" points="1620.25 164.84 1697.07 813.88 2299.46 742.63 2222.64 93.59 1620.25 164.84 1620.25 164.84"/>
    </clipPath>
    <clipPath id="clippath-39">
      <polygon class="cls-26" points="1620.25 813.88 1946.57 813.88 1946.57 93.59 1620.25 93.59 1620.25 813.88 1620.25 813.88"/>
    </clipPath>
    <clipPath id="clippath-40">
      <polygon class="cls-38" points="1620.25 164.84 1697.07 813.88 2299.46 742.63 2222.64 93.59 1620.25 164.84 1620.25 164.84"/>
    </clipPath>
    <clipPath id="clippath-41">
      <polygon class="cls-26" points="1.01 1094.02 1946.57 1094.02 1946.57 .04 1.01 .04 1.01 1094.02 1.01 1094.02"/>
    </clipPath>
    <clipPath id="clippath-42">
      <polygon class="cls-42" points="1780.88 1260.76 2360.15 1440.6 2554.07 816.46 1974.79 636.62 1780.88 1260.76 1780.88 1260.76"/>
    </clipPath>
    <clipPath id="clippath-43">
      <polygon class="cls-22" points="1780.88 1260.76 2360.15 1440.6 2554.07 816.46 1974.79 636.62 1780.88 1260.76 1780.88 1260.76"/>
    </clipPath>
    <clipPath id="clippath-44">
      <polygon class="cls-26" points="1780.88 1094.02 1946.57 1094.02 1946.57 636.62 1780.88 636.62 1780.88 1094.02 1780.88 1094.02"/>
    </clipPath>
    <clipPath id="clippath-45">
      <polygon class="cls-24" points="1780.88 1260.76 2360.15 1440.6 2554.07 816.46 1974.79 636.62 1780.88 1260.76 1780.88 1260.76"/>
    </clipPath>
  </defs>
  <g class="cls-36">
    <g class="cls-1">
      <polygon class="cls-44" points="-29.93 1108.7 1959.99 1108.7 1959.99 -20.93 -29.93 -20.93 -29.93 1108.7 -29.93 1108.7"/>
      <polygon class="cls-14" points="-30.6 1108.7 1960.66 1108.7 1960.66 -20.93 -30.6 -20.93 -30.6 1108.7 -30.6 1108.7"/>
      <g class="cls-10">
        <path class="cls-43" d="m-234.28,362.27c-12.46,1.82-23.41-1.82-34.55-6.69-23.1-10.03-41.95-27.35-60.6-43.66-18.75-16.41-36.38-33.53-54.21-50.75-8.11-7.8-16.92-14.89-24.72-22.89-15.71-16.11-30.1-33.53-44.99-50.44-22.29-25.12-44.08-50.95-63.23-78.5-13.98-20.06-26.75-41.43-37.8-63.21-5.47-10.64-10.84-24.51-7.7-36.57,3.45-13.57,15.1-24.51,24.83-34.24,23.51-23.7,52.69-44.06,80.05-63.31,35.77-25.12,72.15-49.84,109.84-72.22,46-27.45,94.74-50.75,142.37-75.46,28.07-14.59,57.05-27.55,86.23-39.71,14.79-6.18,30.7-14.89,46.71-16.92,15.91-2.03,30.7,6.58,41.34,17.32,16.52,16.71,28.98,36.67,40.23,57.13C45.4-152.81,69.21-82.92,91-12.22c9.93,32.21,25.13,66.65,24.52,100.89-.51,30.89-24.32,52.47-45.9,72.12-7.09,6.48-13.78,13.27-21.08,19.45-59.79,50.34-123.42,96.23-190.6,136.75-28.58,17.32-58.27,40.21-92.21,45.28"/>
      </g>
      <g class="cls-30">
        <path class="cls-6" d="m-234.28,362.27c-12.46,1.82-23.41-1.82-34.55-6.69-23.1-10.03-41.95-27.35-60.6-43.66-18.75-16.41-36.38-33.53-54.21-50.75-8.11-7.8-16.92-14.89-24.72-22.89-15.71-16.11-30.1-33.53-44.99-50.44-22.29-25.12-44.08-50.95-63.23-78.5-13.98-20.06-26.75-41.43-37.8-63.21-5.47-10.64-10.84-24.51-7.7-36.57,3.45-13.57,15.1-24.51,24.83-34.24,23.51-23.7,52.69-44.06,80.05-63.31,35.77-25.12,72.15-49.84,109.84-72.22,46-27.45,94.74-50.75,142.37-75.46,28.07-14.59,57.05-27.55,86.23-39.71,14.79-6.18,30.7-14.89,46.71-16.92,15.91-2.03,30.7,6.58,41.34,17.32,16.52,16.71,28.98,36.67,40.23,57.13C45.4-152.81,69.21-82.92,91-12.22c9.93,32.21,25.13,66.65,24.52,100.89-.51,30.89-24.32,52.47-45.9,72.12-7.09,6.48-13.78,13.27-21.08,19.45-59.79,50.34-123.42,96.23-190.6,136.75-28.58,17.32-58.27,40.21-92.21,45.28h0Z"/>
      </g>
      <g class="cls-31">
        <path class="cls-43" d="m200.23,63.04c-12.16-3.34-20.57-11.14-28.78-20.16-17.02-18.64-27.26-42.04-37.59-64.52-10.44-22.59-19.56-45.38-28.88-68.37-4.26-10.43-9.32-20.46-13.27-31-7.8-21.17-13.78-42.85-20.57-64.32-10.13-32.01-19.56-64.52-25.84-97.44-4.56-24.01-7.6-48.72-8.82-73.03-.61-11.95.1-26.74,7.8-36.57,8.71-11.04,23.81-16.31,36.58-21.27,31.11-12.05,66.07-18.84,98.9-25.22,42.96-8.41,86.23-16.21,129.7-21.37,53.2-6.28,107.31-7.9,160.71-11.04,31.62-1.92,63.33-2.03,94.95-1.22,16.01.41,34.05-1.11,49.55,3.65,15.4,4.66,25.33,18.54,30.7,32.62,8.31,21.98,11.55,45.28,13.48,68.58,6.28,74.05-.41,147.48-9.22,220.92-4.05,33.43-4.15,71.11-18.64,102.21-13.07,27.96-43.57,37.99-71.34,47.2-9.12,3.04-17.94,6.58-27.16,9.22-75.09,21.68-151.9,37.68-229.72,47.41-33.03,4.15-69.51,12.97-102.55,3.75"/>
      </g>
      <g class="cls-37">
        <path class="cls-39" d="m200.23,63.04c-12.16-3.34-20.57-11.14-28.78-20.16-17.02-18.64-27.26-42.04-37.59-64.52-10.44-22.59-19.56-45.38-28.88-68.37-4.26-10.43-9.32-20.46-13.27-31-7.8-21.17-13.78-42.85-20.57-64.32-10.13-32.01-19.56-64.52-25.84-97.44-4.56-24.01-7.6-48.72-8.82-73.03-.61-11.95.1-26.74,7.8-36.57,8.71-11.04,23.81-16.31,36.58-21.27,31.11-12.05,66.07-18.84,98.9-25.22,42.96-8.41,86.23-16.21,129.7-21.37,53.2-6.28,107.31-7.9,160.71-11.04,31.62-1.92,63.33-2.03,94.95-1.22,16.01.41,34.05-1.11,49.55,3.65,15.4,4.66,25.33,18.54,30.7,32.62,8.31,21.98,11.55,45.28,13.48,68.58,6.28,74.05-.41,147.48-9.22,220.92-4.05,33.43-4.15,71.11-18.64,102.21-13.07,27.96-43.57,37.99-71.34,47.2-9.12,3.04-17.94,6.58-27.16,9.22-75.09,21.68-151.9,37.68-229.72,47.41-33.03,4.15-69.51,12.97-102.55,3.75h0Z"/>
      </g>
      <g class="cls-8">
        <path class="cls-43" d="m718.95-33.59c-9.73-8-14.29-18.54-18.14-30.08-8.01-23.91-7.8-49.53-8.11-74.25-.3-24.82.61-49.43,1.42-74.25.41-11.24-.2-22.49.51-33.73,1.42-22.49,4.86-44.77,7.4-67.16,3.75-33.33,8.41-66.85,16.01-99.47,5.57-23.8,12.87-47.51,21.68-70.3,4.36-11.14,10.94-24.41,22.09-30.19,12.36-6.48,28.37-5.17,42.05-4.56,33.34,1.62,67.99,9.72,100.62,17.12,42.66,9.83,85.32,20.26,127.17,33.22,51.17,15.9,101.23,36.47,151.39,55.31,29.69,11.14,58.67,23.91,87.25,37.48,14.49,6.89,31.62,12.87,43.78,23.4,12.16,10.54,15.6,27.25,14.79,42.34-1.32,23.5-7.9,46.09-15.5,68.17-24.32,70.2-60.39,134.62-98.39,198.03-17.33,28.97-32.73,63.31-58.67,85.8-23.31,20.26-55.23,17.02-84.41,14.18-9.53-.91-19.05-1.32-28.58-2.63-77.42-10.74-154.12-27.35-229.21-50.04-31.82-9.72-68.7-16.51-95.15-38.39"/>
      </g>
      <g class="cls-40">
        <path class="cls-41" d="m718.95-33.59c-9.73-8-14.29-18.54-18.14-30.08-8.01-23.91-7.8-49.53-8.11-74.25-.3-24.82.61-49.43,1.42-74.25.41-11.24-.2-22.49.51-33.73,1.42-22.49,4.86-44.77,7.4-67.16,3.75-33.33,8.41-66.85,16.01-99.47,5.57-23.8,12.87-47.51,21.68-70.3,4.36-11.14,10.94-24.41,22.09-30.19,12.36-6.48,28.37-5.17,42.05-4.56,33.34,1.62,67.99,9.72,100.62,17.12,42.66,9.83,85.32,20.26,127.17,33.22,51.17,15.9,101.23,36.47,151.39,55.31,29.69,11.14,58.67,23.91,87.25,37.48,14.49,6.89,31.62,12.87,43.78,23.4,12.16,10.54,15.6,27.25,14.79,42.34-1.32,23.5-7.9,46.09-15.5,68.17-24.32,70.2-60.39,134.62-98.39,198.03-17.33,28.97-32.73,63.31-58.67,85.8-23.31,20.26-55.23,17.02-84.41,14.18-9.53-.91-19.05-1.32-28.58-2.63-77.42-10.74-154.12-27.35-229.21-50.04-31.82-9.72-68.7-16.51-95.15-38.39h0Z"/>
      </g>
      <g class="cls-27">
        <path class="cls-43" d="m1232.09,88.98c-5.57-11.24-5.47-22.79-4.36-34.84,2.43-25.12,13.07-48.42,22.8-71.11,9.83-22.79,20.67-44.87,31.51-67.26,4.86-10.13,9.02-20.66,14.19-30.59,10.44-19.96,22.6-39,34.05-58.35,17.02-28.97,34.86-57.64,55.12-84.38,14.79-19.45,31.11-38.19,48.44-55.41,8.51-8.51,19.96-17.83,32.43-18.64,13.98-.91,28.07,6.79,40.23,12.97,29.79,15.09,58.16,36.47,84.92,56.62,34.96,26.24,69.72,53.18,102.65,82.05,40.33,35.25,77.62,74.45,115.72,112.03,22.6,22.18,43.88,45.68,64.45,69.69,10.44,12.16,23.61,24.61,30.5,39.2,6.79,14.59,3.14,31.2-3.75,44.67-10.84,20.87-25.94,38.9-41.95,55.91-50.77,54.29-109.94,98.46-170.44,140.9-27.56,19.35-55.63,44.47-88.46,54.5-29.59,9.02-57.45-6.99-82.89-21.37-8.31-4.76-16.92-8.91-25.03-13.98-66.37-41.33-129.7-87.62-188.98-138.97-24.83-21.68-55.83-42.85-71.13-73.64"/>
      </g>
      <g class="cls-16">
        <path class="cls-35" d="m1232.09,88.98c-5.57-11.24-5.47-22.79-4.36-34.84,2.43-25.12,13.07-48.42,22.8-71.11,9.83-22.79,20.67-44.87,31.51-67.26,4.86-10.13,9.02-20.66,14.19-30.59,10.44-19.96,22.6-39,34.05-58.35,17.02-28.97,34.86-57.64,55.12-84.38,14.79-19.45,31.11-38.19,48.44-55.41,8.51-8.51,19.96-17.83,32.43-18.64,13.98-.91,28.07,6.79,40.23,12.97,29.79,15.09,58.16,36.47,84.92,56.62,34.96,26.24,69.72,53.18,102.65,82.05,40.33,35.25,77.62,74.45,115.72,112.03,22.6,22.18,43.88,45.68,64.45,69.69,10.44,12.16,23.61,24.61,30.5,39.2,6.79,14.59,3.14,31.2-3.75,44.67-10.84,20.87-25.94,38.9-41.95,55.91-50.77,54.29-109.94,98.46-170.44,140.9-27.56,19.35-55.63,44.47-88.46,54.5-29.59,9.02-57.45-6.99-82.89-21.37-8.31-4.76-16.92-8.91-25.03-13.98-66.37-41.33-129.7-87.62-188.98-138.97-24.83-21.68-55.83-42.85-71.13-73.64h0Z"/>
      </g>
      <g class="cls-34">
        <path class="cls-43" d="m1651.09,409.67c-.51-12.56,4.26-22.99,10.23-33.63,12.46-21.98,31.62-38.9,49.75-55.71,18.24-16.92,37.19-32.62,56.14-48.62,8.61-7.19,16.62-15.19,25.43-22.18,17.63-13.98,36.58-26.34,54.82-39.4,27.36-19.45,55.33-38.49,84.71-54.7,21.48-11.75,43.98-22.18,66.78-30.89,11.15-4.25,25.54-8.2,37.19-3.85,13.17,4.86,22.8,17.62,31.51,28.26,21.18,25.93,38.3,56.93,54.62,86.2,21.28,38.19,42.05,76.98,60.39,116.69,22.5,48.62,40.63,99.57,60.19,149.41,11.55,29.48,21.48,59.56,30.5,89.85,4.56,15.3,11.55,32.11,11.86,48.22.3,16.11-9.83,29.78-21.58,39.3-18.34,14.69-39.52,25.02-61,34.03-68.5,28.87-140.44,45.28-213.1,59.46-33.14,6.48-69.01,18.03-102.95,13.88-30.7-3.75-49.65-29.68-66.98-53.18-5.67-7.7-11.75-15.09-17.12-22.99-43.88-64.73-82.79-132.8-116.13-203.8-14.19-30.08-33.84-62.09-35.26-96.33"/>
      </g>
      <g class="cls-11">
        <path class="cls-21" d="m1651.09,409.67c-.51-12.56,4.26-22.99,10.23-33.63,12.46-21.98,31.62-38.9,49.75-55.71,18.24-16.92,37.19-32.62,56.14-48.62,8.61-7.19,16.62-15.19,25.43-22.18,17.63-13.98,36.58-26.34,54.82-39.4,27.36-19.45,55.33-38.49,84.71-54.7,21.48-11.75,43.98-22.18,66.78-30.89,11.15-4.25,25.54-8.2,37.19-3.85,13.17,4.86,22.8,17.62,31.51,28.26,21.18,25.93,38.3,56.93,54.62,86.2,21.28,38.19,42.05,76.98,60.39,116.69,22.5,48.62,40.63,99.57,60.19,149.41,11.55,29.48,21.48,59.56,30.5,89.85,4.56,15.3,11.55,32.11,11.86,48.22.3,16.11-9.83,29.78-21.58,39.3-18.34,14.69-39.52,25.02-61,34.03-68.5,28.87-140.44,45.28-213.1,59.46-33.14,6.48-69.01,18.03-102.95,13.88-30.7-3.75-49.65-29.68-66.98-53.18-5.67-7.7-11.75-15.09-17.12-22.99-43.88-64.73-82.79-132.8-116.13-203.8-14.19-30.08-33.84-62.09-35.26-96.33h0Z"/>
      </g>
      <g class="cls-9">
        <path class="cls-43" d="m1903.31,872.89c4.66-11.65,13.27-19.35,23-26.54,20.27-14.99,44.69-22.69,68.09-30.69,23.51-8,47.22-14.69,71.03-21.58,10.74-3.14,21.38-7.19,32.22-9.93,21.79-5.57,44.08-9.22,66.17-13.78,32.93-6.69,66.17-12.66,99.61-15.5,24.42-2.03,49.25-2.43,73.57-1.11,11.96.61,26.65,2.94,35.57,11.65,10.03,9.72,13.68,25.32,17.33,38.59,8.82,32.21,11.75,67.67,14.79,100.99,3.85,43.56,7.09,87.42,7.7,131.18.71,53.58-3.45,107.47-5.78,160.96-1.42,31.6-4.66,63.11-8.71,94.51-2.03,15.8-2.43,34.04-8.71,48.92-6.28,14.79-21.08,23.3-35.67,27.05-22.8,5.98-46.31,6.69-69.61,6.28-74.28-1.42-146.73-15.8-218.88-32.31-32.83-7.5-70.32-11.55-99.71-29.27-26.45-15.9-33.24-47.3-39.52-75.87-2.03-9.32-4.66-18.54-6.28-27.96-13.68-76.98-21.58-154.98-23.2-233.38-.71-33.02-5.67-70.3,6.99-102.21"/>
      </g>
      <g class="cls-2">
        <path class="cls-32" d="m1903.31,872.89c4.66-11.65,13.27-19.35,23-26.54,20.27-14.99,44.69-22.69,68.09-30.69,23.51-8,47.22-14.69,71.03-21.58,10.74-3.14,21.38-7.19,32.22-9.93,21.79-5.57,44.08-9.22,66.17-13.78,32.93-6.69,66.17-12.66,99.61-15.5,24.42-2.03,49.25-2.43,73.57-1.11,11.96.61,26.65,2.94,35.57,11.65,10.03,9.72,13.68,25.32,17.33,38.59,8.82,32.21,11.75,67.67,14.79,100.99,3.85,43.56,7.09,87.42,7.7,131.18.71,53.58-3.45,107.47-5.78,160.96-1.42,31.6-4.66,63.11-8.71,94.51-2.03,15.8-2.43,34.04-8.71,48.92-6.28,14.79-21.08,23.3-35.67,27.05-22.8,5.98-46.31,6.69-69.61,6.28-74.28-1.42-146.73-15.8-218.88-32.31-32.83-7.5-70.32-11.55-99.71-29.27-26.45-15.9-33.24-47.3-39.52-75.87-2.03-9.32-4.66-18.54-6.28-27.96-13.68-76.98-21.58-154.98-23.2-233.38-.71-33.02-5.67-70.3,6.99-102.21h0Z"/>
      </g>
    </g>
  </g>
</svg>