<?xml version="1.0" encoding="UTF-8" standalone="no"?> <svg width="64" height="64" viewBox="0 0 64 64" fill="none" xmlns="http://www.w3.org/2000/svg">
<path d="M47.5301 39.45C47.5301 39.1847 47.4247 38.9304 47.2372 38.7428C47.0497 38.5553 46.7953 38.45 46.5301 38.45C46.2649 38.45 46.0105 38.5553 45.823 38.7428C45.6355 38.9304 45.5301 39.1847 45.5301 39.45V43.08H18.4701V39.45C18.4701 39.1847 18.3647 38.9304 18.1772 38.7428C17.9897 38.5553 17.7353 38.45 17.4701 38.45C17.2049 38.45 16.9505 38.5553 16.763 38.7428C16.5755 38.9304 16.4701 39.1847 16.4701 39.45V46.82C16.6501 56.04 47.3501 56.04 47.5301 46.82V39.45Z" fill="#CFCFCF"/>
<path d="M46.5301 38.45C46.2649 38.45 46.0105 38.5553 45.823 38.7428C45.6355 38.9304 45.5301 39.1847 45.5301 39.45V40.7H18.4701V39.45C18.4701 39.1847 18.3647 38.9304 18.1772 38.7428C17.9897 38.5553 17.7353 38.45 17.4701 38.45C17.2049 38.45 16.9505 38.5553 16.763 38.7428C16.5755 38.9304 16.4701 39.1847 16.4701 39.45V42.6399C16.5122 43.3392 16.7144 44.0193 17.0612 44.6279C17.408 45.2366 17.89 45.7573 18.4701 46.15C23.7201 50.7 40.2901 50.7 45.5301 46.15C46.1102 45.7573 46.5922 45.2366 46.939 44.6279C47.2858 44.0193 47.488 43.3392 47.5301 42.6399V39.45C47.5301 39.1847 47.4247 38.9304 47.2372 38.7428C47.0497 38.5553 46.7953 38.45 46.5301 38.45Z" fill="url(#paint0_linear)"/>
<path d="M52.11 24.8099H51.63L50.77 16.7299L40.34 6.57995L39.74 6.51995C39.6992 6.38146 39.629 6.25344 39.534 6.14469C39.4391 6.03594 39.3217 5.94904 39.19 5.88995C36.9133 4.93449 34.469 4.44238 32 4.44238C29.531 4.44238 27.0867 4.93449 24.81 5.88995C24.6622 5.95449 24.5323 6.05381 24.4312 6.17943C24.3301 6.30504 24.2609 6.45324 24.2295 6.61137C24.1981 6.76951 24.2054 6.93291 24.2507 7.08763C24.2961 7.24235 24.3782 7.38381 24.49 7.49995L14.49 13.9299L13.45 23.9999C13.3071 23.902 13.1413 23.8428 12.9687 23.8282C12.7961 23.8137 12.6227 23.8442 12.4654 23.9167C12.3082 23.9893 12.1725 24.1015 12.0716 24.2423C11.9707 24.3831 11.9081 24.5477 11.89 24.7199C11.29 33.0899 14.27 39.3799 21.89 44.5299C23.23 45.4631 24.6943 46.2036 26.24 46.7299C26.3402 46.7723 26.4439 46.8057 26.55 46.8299C28.3888 47.2752 30.327 47.0334 32 46.1499C33.6706 47.0303 35.6057 47.2686 37.44 46.8199L37.68 46.7599L38.05 46.6099H38.11C47.46 42.7599 53.09 34.2999 52.11 24.8099Z" fill="url(#paint1_linear)"/>
<path d="M56.25 13.7799C56.2906 12.1811 55.8225 10.6108 54.9131 9.29522C54.0037 7.97965 52.7 6.98684 51.19 6.45991L40.24 3.10991C37.93 2.37991 36.44 5.33991 37.82 7.10991L52 27.7899C52.2636 28.243 52.6722 28.594 53.1598 28.7862C53.6475 28.9784 54.1857 29.0006 54.6875 28.8491C55.1893 28.6976 55.6253 28.3814 55.9252 27.9515C56.2251 27.5216 56.3712 27.0031 56.34 26.4799L56.25 13.7799Z" fill="url(#paint2_linear)"/>
<path d="M26.21 3.90982C25.9408 3.53214 25.5576 3.25067 25.1167 3.1067C24.6758 2.96272 24.2003 2.96382 23.76 3.10982L12.7601 6.45982C11.2501 6.98675 9.94641 7.97956 9.03702 9.29513C8.12762 10.6107 7.65947 12.1811 7.70005 13.7798V26.4798C7.66887 27.003 7.81503 27.5215 8.1149 27.9514C8.41477 28.3813 8.85084 28.6975 9.35263 28.849C9.85443 29.0005 10.3926 28.9783 10.8803 28.7861C11.3679 28.5939 11.7765 28.2429 12.0401 27.7898L26.18 7.13982C26.5208 6.67162 26.7069 6.10869 26.7123 5.52962C26.7177 4.95056 26.5421 4.38427 26.21 3.90982V3.90982Z" fill="url(#paint3_linear)"/>
<path d="M35.62 32.5H28.38C28.0085 32.5112 27.6474 32.6258 27.3373 32.8309C27.0272 33.036 26.7804 33.3234 26.6246 33.661C26.4688 33.9985 26.4102 34.3728 26.4553 34.7418C26.5004 35.1108 26.6475 35.4599 26.88 35.75L30.5 40C30.6877 40.2128 30.9185 40.3833 31.1772 40.5C31.4358 40.6167 31.7163 40.6771 32 40.6771C32.2838 40.6771 32.5643 40.6167 32.8229 40.5C33.0815 40.3833 33.3124 40.2128 33.5 40L37.12 35.74C37.3497 35.4498 37.4943 35.1017 37.5379 34.7342C37.5814 34.3667 37.5222 33.9944 37.3667 33.6586C37.2112 33.3228 36.9657 33.0367 36.6573 32.8322C36.3489 32.6276 35.9899 32.5126 35.62 32.5Z" fill="url(#paint4_linear)"/>
<path d="M40.34 20.8799C39.0435 20.9421 37.8247 21.5161 36.951 22.476C36.0774 23.436 35.6202 24.7033 35.68 25.9999C35.68 26.2651 35.7854 26.5195 35.9729 26.707C36.1604 26.8945 36.4148 26.9999 36.68 26.9999C36.9452 26.9999 37.1996 26.8945 37.3871 26.707C37.5747 26.5195 37.68 26.2651 37.68 25.9999C37.78 21.9099 42.9 21.9199 43 25.9999C43 26.2651 43.1054 26.5195 43.2929 26.707C43.4804 26.8945 43.7348 26.9999 44 26.9999C44.2652 26.9999 44.5196 26.8945 44.7071 26.707C44.8947 26.5195 45 26.2651 45 25.9999C45.0598 24.7033 44.6027 23.436 43.729 22.476C42.8553 21.5161 41.6365 20.9421 40.34 20.8799V20.8799Z" fill="url(#paint5_linear)"/>
<path d="M27.32 26.9998C27.5852 26.9998 27.8396 26.8945 28.0271 26.7069C28.2146 26.5194 28.32 26.265 28.32 25.9998C28.12 19.2598 19.2 19.2598 19 25.9998C19 26.265 19.1054 26.5194 19.2929 26.7069C19.4804 26.8945 19.7348 26.9998 20 26.9998C20.2652 26.9998 20.5196 26.8945 20.7071 26.7069C20.8946 26.5194 21 26.265 21 25.9998C20.9474 25.2373 21.197 24.4847 21.6947 23.9047C22.1924 23.3246 22.8983 22.9637 23.66 22.8998C24.4217 22.9637 25.1276 23.3246 25.6253 23.9047C26.123 24.4847 26.3726 25.2373 26.32 25.9998C26.32 26.265 26.4254 26.5194 26.6129 26.7069C26.8004 26.8945 27.0548 26.9998 27.32 26.9998Z" fill="url(#paint6_linear)"/>
<path d="M33 53.6198V50.5398C33 50.2746 32.8946 50.0202 32.7071 49.8327C32.5196 49.6452 32.2652 49.5398 32 49.5398C31.7348 49.5398 31.4804 49.6452 31.2929 49.8327C31.1054 50.0202 31 50.2746 31 50.5398V53.6198C30.123 53.8618 29.3634 54.4135 28.8621 55.1728C28.3609 55.9321 28.1519 56.8474 28.274 57.7489C28.3961 58.6505 28.841 59.4773 29.5261 60.0759C30.2112 60.6745 31.0902 61.0044 32 61.0044C32.9098 61.0044 33.7888 60.6745 34.4739 60.0759C35.159 59.4773 35.6039 58.6505 35.726 57.7489C35.8481 56.8474 35.6391 55.9321 35.1379 55.1728C34.6366 54.4135 33.877 53.8618 33 53.6198V53.6198ZM33 58.6898V57.8398C33 57.5746 32.8946 57.3202 32.7071 57.1327C32.5196 56.9452 32.2652 56.8398 32 56.8398C31.7348 56.8398 31.4804 56.9452 31.2929 57.1327C31.1054 57.3202 31 57.5746 31 57.8398V58.6898C30.6881 58.4762 30.4528 58.1684 30.3285 57.8114C30.2041 57.4545 30.1974 57.067 30.3092 56.7059C30.4209 56.3448 30.6454 56.029 30.9496 55.8047C31.2539 55.5804 31.622 55.4594 32 55.4594C32.378 55.4594 32.7461 55.5804 33.0503 55.8047C33.3546 56.029 33.5791 56.3448 33.6908 56.7059C33.8026 57.067 33.7959 57.4545 33.6715 57.8114C33.5472 58.1684 33.3119 58.4762 33 58.6898Z" fill="url(#paint7_linear)"/>
<defs>
<linearGradient id="paint0_linear" x1="16.4701" y1="44.01" x2="47.5301" y2="44.01" gradientUnits="userSpaceOnUse">
<stop stop-color="#31446D"/>
<stop offset="0.41" stop-color="#243355"/>
<stop offset="1" stop-color="#0F152C"/>
</linearGradient>
<linearGradient id="paint1_linear" x1="11.82" y1="25.75" x2="52.22" y2="25.75" gradientUnits="userSpaceOnUse">
<stop stop-color="#EDCF7F"/>
<stop offset="0.39" stop-color="#E0B76B"/>
<stop offset="1" stop-color="#C88A44"/>
</linearGradient>
<linearGradient id="paint2_linear" x1="37.29" y1="15.9599" x2="56.29" y2="15.9599" gradientUnits="userSpaceOnUse">
<stop stop-color="#141C2C"/>
<stop offset="0.84" stop-color="#090D14"/>
<stop offset="1" stop-color="#070A0F"/>
</linearGradient>
<linearGradient id="paint3_linear" x1="154.313" y1="417.403" x2="515.626" y2="417.403" gradientUnits="userSpaceOnUse">
<stop stop-color="#141C2C"/>
<stop offset="0.84" stop-color="#090D14"/>
<stop offset="1" stop-color="#070A0F"/>
</linearGradient>
<linearGradient id="paint4_linear" x1="319.888" y1="331.783" x2="444.111" y2="331.783" gradientUnits="userSpaceOnUse">
<stop stop-color="#141C2C"/>
<stop offset="0.84" stop-color="#090D14"/>
<stop offset="1" stop-color="#070A0F"/>
</linearGradient>
<linearGradient id="paint5_linear" x1="368.584" y1="167.332" x2="455.543" y2="167.332" gradientUnits="userSpaceOnUse">
<stop stop-color="#141C2C"/>
<stop offset="0.84" stop-color="#090D14"/>
<stop offset="1" stop-color="#070A0F"/>
</linearGradient>
<linearGradient id="paint6_linear" x1="196.08" y1="165.962" x2="282.942" y2="165.962" gradientUnits="userSpaceOnUse">
<stop stop-color="#141C2C"/>
<stop offset="0.84" stop-color="#090D14"/>
<stop offset="1" stop-color="#070A0F"/>
</linearGradient>
<linearGradient id="paint7_linear" x1="28.26" y1="55.2698" x2="35.74" y2="55.2698" gradientUnits="userSpaceOnUse">
<stop stop-color="#FFCC05"/>
<stop offset="1" stop-color="#F9A31A"/>
</linearGradient>
</defs>
</svg>
