<?xml version="1.0" encoding="UTF-8"?>
<svg id="Layer_1" data-name="Layer 1" xmlns="http://www.w3.org/2000/svg" viewBox="0 0 800 600">
  <defs>
    <style>
      .cls-1 {
        fill: #f2f2f2;
      }
    </style>
  </defs>
  <path class="cls-1" d="m392.86,320.85c-.03-.4-.07-.8-.12-1.19-1.18-11.43-5.71-19.33-11.43-24.74-8.03-7.88-19.2-11.72-30.35-11.94-.05,0-.09,0-.14,0-.09,0-.17,0-.26,0h0c-.08,0-.12,0-.12,0v-21.31c21.31,0,21.31-21.31,21.31-21.31,0,0,0-21.31-21.31-21.31h-5.91c.89-2.38,1.41-5.2,1.41-8.55,0,0,1.67-13.13-17.69-37.42,14.97-14.97,30.17-30.17,32.76-32.76.16-.16.29-.33.44-.49.34-.36.69-.72,1-1.11.14-.17.26-.36.4-.54.29-.38.59-.77.86-1.17.15-.23.28-.47.42-.7.22-.36.45-.72.65-1.1.13-.25.24-.51.36-.76.18-.38.37-.75.53-1.13.1-.23.17-.48.26-.71.15-.42.31-.83.44-1.25.06-.2.1-.4.15-.6.13-.47.25-.94.35-1.41.03-.17.05-.33.07-.5.09-.51.17-1.02.22-1.54.59-6.11-1.46-12.43-6.14-17.12,0,0,0,0,0,0-8.32-8.32-21.82-8.32-30.14,0h0c-2.59,2.59-17.78,17.79-32.75,32.76-5.03-4.02-9.61-7.14-13.71-9.56-.35-.21-.69-.4-1.03-.6-.22-.12-.43-.25-.64-.37-14.4-8.12-22.05-7.16-22.05-7.16-6.4,0-10.87,1.93-14.01,4.62-3.14,2.58-5.39,6.16-6.5,10.53-.21.81-.59,1.56-1.18,2.14l-3.57,3.56c-.55.55-1.24.9-1.98,1.11-3.78.87-6.63,2.56-8.78,4.61-2.77,2.53-4.77,5.86-5.8,9.89-.21.81-.59,1.56-1.18,2.14-1.02,1.02-2.67,2.66-3.68,3.67-.57.57-1.3.95-2.08,1.16-2.99.81-5.85,2.23-8.28,4.29-2.83,2.29-5.28,5.63-6.45,10.46,0,.03-.02.06-.03.09-.19.75-.55,1.45-1.1,1.99l-3.58,3.56c-.58.58-1.32.96-2.11,1.17-1.86.49-3.57,1.2-5.12,2.11-4.81,2.6-9.42,7.54-9.79,16.92-.04.55-.07,1.11-.08,1.68,0,.07,0,.16-.01.25,0,.09-.01.18-.01.27,0,.26,0,.57.02.91,0,.02,0,.04,0,.06.01.2.02.42.04.65,0,.1.02.22.03.33.01.13.03.26.04.4.01.13.03.26.05.4.02.14.04.29.06.44.02.14.04.28.07.42.03.18.06.36.09.55.02.13.05.26.07.39.05.25.1.51.16.77.02.09.04.17.06.26.14.62.31,1.29.51,1.99h-39.28c-21.31,0-21.31,21.31-21.31,21.31,0,0,0,21.31,21.31,21.31v21.31s-42.63,0-42.63,42.63v127.88c0,42.63,42.63,42.63,42.63,42.63h213.22s.03,0,.05,0c.1,0,.28,0,.5-.02,11.09-.25,22.18-4.07,30.18-11.89,5.74-5.42,10.31-13.32,11.49-24.8.04-.39.08-.79.12-1.19.04-.49.08-.98.1-1.48.06-1.07.1-2.15.1-3.26v-127.88c0-1.11-.04-2.19-.1-3.26-.03-.5-.07-.99-.1-1.48Z"/>
  <path class="cls-1" d="m463.09,361.57c-.59,2.29-1.13,5.23-1.62,8.8h-.2c-.56-4.06-1.6-8.97-3.14-14.7l-8.1-29.01h-15.5l20.02,65.65h13.79l19.67-65.65h-15.9l-9.03,34.91Z"/>
  <rect class="cls-1" x="496.55" y="326.66" width="14.87" height="65.65"/>
  <path class="cls-1" d="m538.06,366.39c2.13,1.64,3.62,3.03,4.49,4.18.87,1.15,1.3,2.38,1.3,3.69,0,1.7-.54,3.07-1.62,4.11-1.08,1.03-2.55,1.55-4.42,1.55-3.21,0-7.16-1.38-11.87-4.13v15.29c4.09,1.97,8.21,2.95,12.36,2.95,6.08,0,11.1-1.86,15.06-5.58,3.96-3.72,5.94-8.42,5.94-14.09,0-4.85-1.51-9.12-4.54-12.81-3.03-3.69-6.01-6.55-8.95-8.58-4.94-3.44-7.41-6.54-7.41-9.29,0-1.57.53-2.81,1.6-3.71,1.06-.9,2.51-1.35,4.34-1.35,2.75,0,6.33,1.21,10.75,3.64v-14.7c-4.12-1.8-8.28-2.7-12.46-2.7-5.66,0-10.27,1.79-13.84,5.36-3.57,3.57-5.35,8.2-5.35,13.87,0,4.16,1.15,7.94,3.46,11.33,2.31,3.39,6.03,7.06,11.16,10.99Z"/>
  <path class="cls-1" d="m591.14,394.12c5.36,0,9.54-.83,12.54-2.48,2.99-1.65,5.26-4.25,6.8-7.79,1.54-3.54,2.31-8.24,2.31-14.11v-43.08h-15.16v45.68c0,2.36-.58,4.21-1.74,5.56-1.16,1.34-2.74,2.02-4.73,2.02s-3.47-.63-4.61-1.89c-1.14-1.26-1.72-2.97-1.72-5.14v-46.22h-15.26v40.76c0,9.67,1.62,16.54,4.86,20.6,3.24,4.07,8.81,6.1,16.73,6.1Z"/>
  <path class="cls-1" d="m637.12,326.66l-17.37,65.65h15.16l2.6-10.97h15.7l2.5,10.97h15.46l-17.37-65.65h-16.68Zm3.09,42.88c2.13-9.51,3.78-18.8,4.96-27.88h.2c1.11,8.82,2.78,18.11,5,27.88h-10.16Z"/>
  <path class="cls-1" d="m705.32,392.21h0s0,0,0,0v-15.1h-11.78v-50.45h-14.87v65.65h.01c.07,2.41,2.65,2.42,2.65,2.42,2.66,0,2.66,5.03,5.33,5.03s2.66-5.03,5.33-5.03,3.29,1.89,5.95,1.89,2.04-1.89,4.71-1.89c2.38,0,2.63-1.99,2.66-2.42h0v-.09Z"/>
  <polygon class="cls-1" points="470.04 439.94 456.85 439.94 456.85 415.6 441.98 415.6 441.98 481.24 456.85 481.24 456.85 453.95 470.04 453.95 470.04 481.24 484.91 481.24 484.91 415.6 470.04 415.6 470.04 439.94"/>
  <rect class="cls-1" x="499.48" y="415.6" width="14.87" height="65.64"/>
  <path class="cls-1" d="m551.39,450.51c-.59,2.29-1.13,5.23-1.62,8.8h-.2c-.56-4.06-1.6-8.97-3.14-14.7l-8.1-29.01h-15.5l20.02,65.64h13.79l19.67-65.64h-15.9l-9.03,34.91Z"/>
  <path class="cls-1" d="m599.18,455.28h13.2v-13.62h-13.2v-12.1h15.21v-13.96h-30.08v65.64h.02c.13,2.35,2.99,2.36,2.99,2.36,3.02,0,3.02,4.19,6.03,4.19s3.02-4.19,6.03-4.19,3.02,6.71,6.03,6.71,3.02-6.71,6.03-6.71c2.58,0,2.95-1.83,3-2.36h.01v-14.01h-15.31v-11.95Z"/>
</svg>