<?xml version="1.0" encoding="UTF-8"?>
<svg xmlns="http://www.w3.org/2000/svg" xmlns:xlink="http://www.w3.org/1999/xlink" viewBox="0 0 3401 1511">
  <defs>
    <style>
      .cls-1 {
        stroke-width: 1.83px;
      }

      .cls-1, .cls-2 {
        stroke: #fff;
        stroke-miterlimit: 10;
      }

      .cls-1, .cls-2, .cls-3 {
        fill: none;
      }

      .cls-2 {
        stroke-width: 6.39px;
      }

      .cls-4 {
        clip-path: url(#clippath);
      }

      .cls-5 {
        fill: url(#linear-gradient);
      }
    </style>
    <linearGradient id="linear-gradient" x1="1532.83" y1="465.6" x2="1868.17" y2="1046.42" gradientTransform="translate(-6082.91 4213.52) scale(4.58 -4.58)" gradientUnits="userSpaceOnUse">
      <stop offset="0" stop-color="gray"/>
      <stop offset=".65" stop-color="#d5d5d5"/>
      <stop offset="1" stop-color="#fff"/>
    </linearGradient>
    <clipPath id="clippath">
      <rect class="cls-3" x="-38.42" y="-261.5" width="3477.84" height="1931.1"/>
    </clipPath>
  </defs>
  <g id="BACKGROUND">
    <rect class="cls-5" x="-15.92" y="-28.19" width="3432.85" height="1562.69"/>
  </g>
  <g id="OBJECTS">
    <g class="cls-4">
      <path class="cls-2" d="m1115.1-305.69c-31.61,58.63-63.22,117.27-94.84,175.9-9.23,17.12-18.65,34.96-18.23,53.73.75,33.27,31.31,59.96,50.01,89.37,13.26,20.85,20.8,43.88,26.5,66.99,17.81,72.28,18.37,147.48,1.63,219.93-7.48,32.38-18.43,64.72-16.81,97.67,1.77,36.14,18.6,70.88,20.39,107.02,1.09,21.98-3.26,44.88,6.33,65.37,19.02,40.65,82.11,53.08,113.71,87.86,19.15,21.08,25.66,49.38,48.17,68.02,25.29,20.94,64.05,24.49,99.63,26.38,85.24,4.53,170.7,6.25,256.11,5.16,49.14-.63,99.65-2.45,144.66-18.9,29.56-10.81,55.97-27.7,87.02-35.05,43.84-10.38,90.48-.44,134.47,9.48,99.11,22.35,209.18,51.78,256.35,127.74,38.54,62.06,28.79,147.27,94.64,190.54,30.26,19.88,73.63,28.06,92.14,56.22,19.71,29.99,1.23,66.65.27,100.83-1.09,38.49,20.7,74.8,26.91,112.96,12.26,75.27-36.53,148.67-37.41,224.63-.79,69.13,41.17,137.65,108.82,177.71"/>
      <path class="cls-2" d="m-122.9,962.03c31.11,32.66,91.48,34.93,138.12,19.77,46.63-15.16,84.91-43.68,127.61-65.45,59.6-30.38,127.42-47.37,194.64-63.25,143.73-33.96,296.18-64.39,440.95-33.63,61.53,13.07,127.24,45.38,135.06,97.87,3.88,26.04-7.59,51.77-18.86,76.27-22.18,48.2-44.36,96.4-66.54,144.59-24.25,52.71-48.94,108.52-38.02,164.23,12.26,62.56,73.17,116.53,147.38,130.58,60.16,11.4,128.79-.52,180.01,28.13,43.78,24.49,60.47,71.81,62.43,115.7,1.36,30.49-3.65,62.87-26.13,86.97-20.69,22.18-57.31,43.38-46.57,70"/>
      <path class="cls-2" d="m3463.51-20.4c-37.35,24.77-91.24,16.64-137.92,8.29-261.32-46.73-540.27-59.27-790.49,18.95-89.73,28.05-181.61,74.46-210.71,150.52-10.89,28.47-11.94,58.81-12.89,88.68-2.11,65.86-4.01,133.05,18.91,196.11,14.87,40.9,39.83,78.85,68.85,114.1,20.03,24.33,43.04,48.22,74.42,61.92,28.39,12.4,61.19,15.4,93.14,17.57,41.31,2.8,82.72,4.57,124.15,5.31,21.8.39,44.34.37,64.36-6.82,23.85-8.56,41-26.13,57.17-43.06,60.43-63.26,120.87-126.52,181.3-189.78,33.26-34.82,67.51-70.37,113.17-93.46,45.66-23.1,105.83-31.55,152.38-9.72,19.35,9.07,35.14,22.69,54.26,32.1,65.46,32.21,148.53,8.02,218.14-17.44"/>
      <path class="cls-1" d="m-73.36,838.61c-8.65,10.29,11.83,20.37,26.91,20.77,74.02,1.95,145.1-21.48,214.81-42.28,213.19-63.61,446.86-105.74,665.19-55.67,51.23,11.75,102.61,29.45,138.53,62.06,59.82,54.31,63.39,137.65,42.26,209.21-21.13,71.57-62.96,138.03-83.45,209.73-5.51,19.27-9.26,40.28.63,58.3,7.61,13.87,22.41,24.11,38.11,31.94,70.52,35.21,162.99,30.07,231.36,68.1,56.09,31.2,86.48,87.28,94.75,143.04,8.27,55.75-2.72,112.1-13.69,167.53"/>
      <path class="cls-1" d="m-132.7,1082.92c26.54,10.93,57.34,11.43,86.95,11.1,22.2-.25,44.63-.88,66.1-5.61,38.67-8.52,71.24-29.56,104.16-48.49,82.78-47.59,174.59-84.2,270.84-108.48,48.13-12.14,97.38-21.21,147.18-27.02,45.8-5.35,92.49-16.78,138.83-10.57,48.87,6.55,97.01,33.85,107.91,74.06,9,33.21-8.26,66.93-23.17,98.62-38.9,82.68-64.2,173.21-43.05,260.24,21.16,87.03,97.71,168.96,202.19,186.64,25.88,4.38,53.19,4.97,76.99,14.49,40.86,16.36,62.13,57.14,58.42,94.77-3.71,37.63-28.42,71.93-59.21,99.65"/>
      <path class="cls-1" d="m241.45,1079.13c-106.85,31.21-216.7,63.86-301.09,126.74-57.63,42.94-102.18,114.4-63.61,170.23,7.88,11.4,18.86,21.3,31.88,28.74,28.65,16.37,65.14,20.04,99.86,19.06,114.86-3.24,220.23-50.94,320.68-97.46,76.45-35.41,153.8-72.52,218.23-122.4,48.74-37.73,131.15-114.9,118.6-176.62-21.49-105.7-364.21,34.09-424.54,51.71Z"/>
      <path class="cls-1" d="m14.9,1232.65c-34.58,24.62-60.71,59.81-61.37,97.69-.09,4.89.33,10.02,3.39,14.19,4.53,6.17,13.62,8.74,22.12,10.2,37.92,6.51,77.38-.14,114.15-10.24,55.46-15.23,107.99-38.51,152.43-70.07,23.23-16.49,45.59-37.99,45.23-63.41-.71-49.55-68.71-58.63-112.75-45.31-56.85,17.21-116.47,33.67-163.21,66.94Z"/>
      <path class="cls-1" d="m422.54,1091.3c-21.98,12.4-39.83,31.89-41.34,53.97-.76,11.2,3.97,23.83,16.05,28.78,4.76,1.95,10.16,2.5,15.46,2.79,50.65,2.79,102.13-17.37,132.51-51.14,31.61-35.12,10.51-61.3-40.23-58.99-28.44,1.3-59.06,11.39-82.46,24.59Z"/>
      <path class="cls-1" d="m-88.06,1479.6c83.2,17.07,170.89,1.76,252.84-19.09,89.52-22.77,177.44-52.55,253.91-97.51,32.32-19,63.42-41.05,101.32-50.47,37.9-9.43,85.75-1.82,104.69,27.1,15.88,24.24,6.86,54.41,14.34,81.31,10.03,36.09,48.09,61.7,86.22,80.77,32.05,16.03,65.89,29.58,100.95,40.42,41.38,12.79,89.3,25.21,107.74,58.62,10.74,19.46,8.46,42.8-2.36,62.22-10.82,19.43-29.45,35.25-50.32,47.76"/>
      <path class="cls-1" d="m-99.89,1548.73c167.68,15.97,338.36-23.51,485.72-92.03,26.88-12.5,53.86-26.19,84.16-30.72,30.3-4.54,65.41,2.38,82.38,23.77,9.64,12.16,12.21,27.11,16.91,41.15,13.84,41.35,50.57,78.52,99.7,91.5,20.07,5.3,41.36,6.53,61.76,10.87,20.4,4.33,41,12.64,51.74,27.72,18.2,25.57,1.16,58.44-20.19,82.25"/>
      <path class="cls-1" d="m-80.55,747.97c9.57,13.13,31.37,14.7,49.81,14.23,195.22-5.06,379.59-73.87,572.38-99.95,78.7-10.64,158.8-14.15,236.61-28.63,65.39-12.16,135.08-36.79,162.45-87.72,22.85-42.53,10.02-91.78,14.64-138.22,4.27-42.96,23.68-83.77,34.42-125.94,17.69-69.45,11.31-143.04-18.16-209.66-15.61-35.28-37.71-69.21-43.4-106.51-14.96-98.12,85.28-184.14,95.27-282.69"/>
      <path class="cls-1" d="m-83.73,678.99c89.28,24.62,185.77-1.73,275.82-24.29,151.56-37.97,306.89-65.49,463.88-82.18,47.99-5.1,98.48-9.92,137.87-33.31,46.4-27.56,68.36-76.07,75.96-123.12,7.6-47.05,3.43-94.97,10.34-142.09,4.74-32.36,14.68-65.26,6.25-97.1-8.03-30.35-31.75-55.87-48.57-83.6-38.8-63.98-39.56-143.05-1.99-207.53,14.29-24.53,33.63-46.81,48.38-71.14,27.38-45.15,38.14-95.81,48.58-145.64"/>
      <path class="cls-1" d="m-67.66,585.14c89.84,28.17,190.75,13.2,282.15-11.25,111.15-29.74,222.3-56.07,339.12-73.2,91.72-13.45,165.56-48.35,189.34-128.08,16.71-56.01,16.43-117.2,6.87-174.09-9.25-55-49.77-103.76-51.94-159.73-2.22-57.37,17.69-112.6,45.75-164.43,32.58-60.2,74.66-123.32,63.1-191.78"/>
      <g>
        <path class="cls-1" d="m91.39,84.53C22.15,111.44-37.79,154.47-81.43,206.65c-43.64,52.18-70.96,113.52-74.96,177.07-1.85,29.45,1.71,60.78,22.31,84.77,36.29,42.25,108.81,46.16,171.15,44.39,79.48-2.26,161.33-7.17,241.74-18.13,80.41-10.97,159.4-28,233.17-54.49,54.54-19.59,113.71-49.38,138.6-96.32,28.69-54.09,11.29-120.13-20.23-170.94-42.66-68.79-140.61-93.92-224.71-111.23-103.91-21.38-216.81-15.11-314.25,22.77Z"/>
        <path class="cls-1" d="m555.29,196.09c-31.27-49.75-99.31-70.69-162.66-84.02-5.4-1.14-10.76-2.23-16.06-3.28-72.67-14.4-151.07-11.93-221.8,9.26-9.35,2.8-18.57,5.93-27.63,9.4-55.2,21.09-103.16,54.6-138.15,95.2-4.3,4.98-8.41,10.06-12.31,15.24-28.51,37.59-45.94,80.29-47.93,124.38-.14,3.21-.2,6.45-.15,9.7.31,20.24,5.13,40.56,19.43,56.7,28.64,32.36,85.1,35.83,134.48,34.68,25.55-.62,51.47-1.63,77.54-3.19,37.3-2.24,74.9-5.61,112.16-10.63,63.06-8.51,125.06-21.89,183.08-42.25,45.13-15.83,93.35-39.53,114.25-76.55,23.75-42.39,11.37-94.09-14.24-134.65Z"/>
        <path class="cls-1" d="m480.23,219.19c-23.35-36.11-73.19-51.71-120.83-61.09-3.99-.8-7.96-1.55-11.89-2.28-53.57-9.91-111.6-7.65-164.11,7.75-6.93,2.03-13.77,4.3-20.49,6.8-41.17,15.27-77.08,39.31-103.48,68.28-3.27,3.59-6.4,7.26-9.39,10.98-22.18,27.59-35.66,58.81-36.15,91.2-.03,2.36,0,4.75.14,7.14.74,14.8,5.28,29.29,16.11,40.9,20.97,22.48,61.38,25.51,97.81,24.98,18.46-.32,37.28-.95,56.27-2.02,26.99-1.52,54.29-3.91,81.4-7.48,45.7-6.04,90.74-15.74,132.98-30,35.74-12.06,73.09-29.61,89.89-56.78,18.93-30.61,11.37-68.01-8.26-98.36Z"/>
        <path class="cls-1" d="m405.17,242.29c-15.35-22.51-47.08-32.65-79-38.16-2.58-.45-5.16-.88-7.73-1.27-34.47-5.42-72.13-3.38-106.43,6.24-4.51,1.27-8.96,2.67-13.35,4.2-27.14,9.45-51.05,23.99-68.81,41.35-2.25,2.2-4.4,4.45-6.46,6.71-15.96,17.53-25.39,37.33-24.36,58.02.08,1.52.22,3.04.42,4.58,1.21,9.35,5.41,18.04,12.8,25.09,13.24,12.63,37.67,15.36,61.15,15.27,11.38-.04,23.09-.28,34.99-.85,16.67-.81,33.68-2.2,50.64-4.34,28.34-3.58,56.46-9.5,82.89-17.76s52.74-19.73,65.54-37.02c13.99-18.89,11.44-41.96-2.27-62.06Z"/>
        <path class="cls-1" d="m184.85,299.95c1.61,3.91,5.4,6.93,9.48,9.28,7.43,4.28,21.61,6.13,38.2,5.88s35.59-2.59,52.68-6.7,32.26-9.97,41.18-17.25,11.61-15.98,3.71-25.77c-7.25-8.98-20.95-13.75-37.17-15.23s-34.97.32-52.31,4.45-33.28,10.61-43.88,18.48-15.87,17.13-11.88,26.85Z"/>
      </g>
      <path class="cls-1" d="m701.2-291.6c17.44,18.35,19.96,44.08,13.8,66.92-6.16,22.84-19.94,43.64-32.71,64.49-19.7,32.19-37.33,65.26-52.77,99.02-8.65,18.91-17.53,39.11-36.81,51.42-19.41,12.38-45.47,14.23-69.92,14.42-99.32.79-198.12-17.61-297.31-13.22C101.24-3.05-20.18,39.54-111.72,109.73"/>
      <path class="cls-1" d="m-83.43,15.74C-23.92-25.37,55.4-40.11,132.17-47.74c82.12-8.16,165.19-9.68,247.66-4.52,30.02,1.88,60.16,4.64,90.16,2.52,30-2.12,60.36-9.54,83.31-25.77,21.81-15.42,35.19-37.39,46.78-59.17,13.13-24.68,24.82-50.3,28.3-77.15,3.49-26.84-1.91-55.28-20.5-77.4"/>
      <path class="cls-1" d="m966.51,636.56c-15.99,4.95-30.24,15.22-35.26,28.8-7.1,19.2,5.47,39.95,22.49,54.18,17.02,14.24,38.44,24.36,55.73,38.37,15.63,12.67,27.45,28.15,40.97,42.4,13.52,14.25,29.55,27.73,49.98,34.07,20.43,6.34,46.08,3.85,60.23-9.96,32.16-31.38,25.39-118-10.63-147.6-38.99-32.05-132.82-55.94-183.51-40.25Z"/>
      <path class="cls-1" d="m1362.58,1730.17c28.49-61.04,40.53-127.37,35-192.7-2.55-30.12-8.6-61.4,3.8-89.78,15.61-35.71,57.49-59.02,100.28-72.21,63.42-19.56,132.22-22.12,199.11-30.43,152.42-18.92,299.12-69.06,423.56-144.77,20.95-12.75,42.41-26.62,67.98-30.26,25.57-3.64,56.33,7.37,61.29,28.58,3.08,13.19-4.26,26.48-4.65,39.92-.78,26.92,25.58,48.78,34.6,74.64,12.03,34.48-7.81,70.26-21.42,104.33-39.16,97.97-26.08,209.57,35.07,299.39"/>
      <g>
        <path class="cls-1" d="m1162.64,923.62c-28.04,29.42-45.14,64.86-61.86,99.75-19.87,41.47-39.74,82.94-59.61,124.41-8.98,18.75-18.07,37.86-19.87,57.99-1.8,20.13,4.81,41.8,22.89,55.24,13.31,9.89,31.11,14.27,48.42,17.84,207.09,42.74,425.32,9.46,631.93-34.85,121.21-26,245.4-57.59,339.8-126.05,23.02-16.7,44.31-35.84,56.96-58.98,10.68-19.54,14.77-41.2,15.68-62.66,3-70.77-36.11-148.29-114.87-174.97-32.25-10.93-67.81-12.45-102.58-13.83-18.62-.74-37.52-1.46-55.7,1.96-21.03,3.96-39.94,13.23-59.36,21.02-87.11,34.95-188.3,39.19-280.53,16.55-81.14-19.92-149.28-22.27-231.47,2.53-49.78,15.02-96.63,39.2-129.83,74.03Z"/>
        <path class="cls-1" d="m1278.02,956.27c-24.78,20.9-42.81,46.83-57.01,74.79-15.21,29.96-28.86,60.75-41.54,91.17-5.73,13.75-11.29,27.7-11.74,42.19-.48,14.45,4.88,29.81,18.12,39.49,9.96,7.26,23.03,10.65,35.83,13.37,32.46,6.88,65.65,10.62,98.85,12.44,123.11,6.72,248.82-12.41,369.72-36.25,92.28-17.86,189.7-39.2,263.6-89.6,18.03-12.3,34.8-26.42,45.27-43.69,8.51-14.04,12.09-29.6,13.62-44.92,5.18-51.74-21.75-107.42-81.5-128.1-23.43-8.06-49.26-9.63-74.69-10.94-13.55-.69-27.31-1.33-40.62.83-15.32,2.51-29.26,8.6-43.54,13.74-64.29,23.05-138.05,25.67-205.01,11.69-63.46-13.25-119.14-14.22-183.85,2.7-39.67,10.27-77.07,27.11-105.5,51.09Z"/>
        <path class="cls-1" d="m1393.4,988.92c-21.7,12.27-40.38,28.84-52.15,49.83-10.39,18.52-17.97,38.56-23.47,57.93-2.49,8.76-4.49,17.53-3.62,26.4s4.93,17.83,13.34,23.74c6.61,4.64,14.95,7.03,23.24,8.89,20.89,4.67,42.76,6.51,64.33,7.3,80.23,2.92,161.7-7.6,240.86-20.07,63.31-9.97,133.99-20.81,187.4-53.15,13.04-7.9,25.24-17.02,33.58-28.4,6.28-8.56,9.46-18.01,11.57-27.19,7.51-32.77-7.36-66.65-48.13-81.23-14.6-5.22-30.72-6.81-46.8-8.05-8.48-.64-17.11-1.2-25.55-.29-9.62,1.06-18.58,3.97-27.73,6.46-41.48,11.16-87.95,12.57-129.49,6.83-45.91-6.34-88.98-6.06-136.23,2.88-29.54,5.59-57.73,14.89-81.16,28.14Z"/>
        <path class="cls-1" d="m1508.77,1021.56c-18.83,3.15-37.5,11.11-47.3,24.87-9.8,13.76-7.83,33.83,7.67,43.28,11.31,6.89,26.47,6.91,40.48,6.58,37.35-.88,74.69-2.17,112-3.89,42.84-1.97,100.34-2.79,133.09-29.82,20.98-17.31,21.42-33.15-5.26-43.82-26.96-10.78-66.56-7.59-95.25-5.44-47.13,3.53-99.39.53-145.43,8.24Z"/>
      </g>
      <path class="cls-1" d="m1451.48,1700.42c9.01-44.39,14.15-89.32,15.38-134.32.84-30.82.57-63.81,21.18-89.42,29.26-36.37,88.41-44.2,140.69-48.76,134.98-11.77,273.34-24.41,394.58-75.2,32.36-13.56,69.55-30.1,102.62-17.78,22.64,8.44,36.06,28.91,39.62,49.35,3.56,20.44-1.1,41.18-5.57,61.5-18.54,84.35-32.17,177.35,21.03,250.77"/>
      <path class="cls-1" d="m1541.52,1703.82c17-26.71,13.02-58.81,10.96-88.99-2.06-30.18-.33-63.64,24.42-85.75,27.75-24.8,73.44-26.14,114.11-27.3,94.94-2.7,189.53-13.73,281.7-32.84,26.3-5.45,60.37-9.21,74.83,9.89,5.41,7.15,6.4,15.99,6.31,24.44-.57,53.93-37.95,111.05-7.86,158.81"/>
      <path class="cls-1" d="m1263.83-298.23c-66.91,56.59-138.52,122.6-135.64,201.99,1.33,36.48,18.69,70.99,31.1,105.98,23.93,67.51,29.68,139.45,16.7,209.01-8.35,44.75-24.33,88.51-28.97,133.64-4.64,45.13,3.58,93.63,38.14,128.6,28.46,28.81,73.34,47.27,89.97,81.91,10.72,22.33,8.87,50.03,29.5,66.85,10.54,8.59,25.16,12.59,39.25,16.23,93.15,24.04,196.6,43.76,285.72,10.78,59.92-22.18,108.06-66.7,172.52-76.7,52.46-8.14,105.63,8.33,158.95,9.98,98.86,3.05,196.6-50.79,231.91-127.77,20.37-44.41,20.99-93.16,21.05-140.69.14-112.88,2.77-236.12,89.22-323.06,32.52-32.7,74.92-57.76,107.95-90.11,68.67-67.25,90.39-165.56,54.95-248.76"/>
      <path class="cls-1" d="m1847.59,310.35c1.68,40.42,8.36,81.93,32.55,117,24.18,35.07,69.13,62.52,117.65,60.94,49-1.59,91.37-32.28,113.05-68.91,21.68-36.63,26.25-78.49,28.34-119.29,4.07-79.39,20.26-197.39-74.95-246.48-82.16-42.36-167,10.81-193.32,78.01-21.96,56.08-25.77,120.21-23.33,178.73Z"/>
      <path class="cls-1" d="m1951.77,353.96c5.12,9.68,11.37,19.3,21.18,26.03,9.81,6.72,23.9,9.99,35.53,5.74,8.59-3.14,14.56-9.74,19.68-16.29,31.08-39.73,101.06-214.64-1.92-219.51-116.66-5.52-104.12,148.03-74.47,204.03Z"/>
      <g>
        <path class="cls-1" d="m1362.49-277.58c-50.13,41.67-92.67,93.91-98.15,152.72-3.06,32.9,5.63,65.65,11.94,98.23,21.11,109.07,15.5,221.68-16.4,328.91,10.16,31.45,20.6,63.45,41.57,90.94,16.22,21.27,38.57,39.62,49.47,63.13,12.23,26.4,9.16,57.62,28.28,81.01,17.12,20.94,48.17,30.57,77.97,35.61,62.04,10.5,128.53,6.07,185.41-17.09,56.87-23.16,103.07-65.88,119.32-116.84,17.95-56.27-.65-115.5-4.8-173.62-6.02-84.46,19.73-170.3,72.74-242.47,45.3-61.67,111.59-117.15,122.9-188.84,7.61-48.23-11.95-97.55-44.92-137.69"/>
        <path class="cls-1" d="m1416.48-274.69c-37.55,35.33-69.87,78.57-74.63,126.71-2.65,26.82,3.45,53.51,7.72,80.08,14.31,88.9,8.14,180.44-17.01,268.01,4.06,14.43,8.22,29,13.81,43.02,4.39,10.98,9.7,21.68,16.61,31.73,12.17,17.75,29.2,33.31,38.07,52.5,9.93,21.47,8.99,46.18,25.23,64.58,14.25,16.14,38.87,23.54,62.61,27.13,49.56,7.45,102.46,2.54,146.54-17.44s79.84-56.8,92.65-98.85c13.95-45.24.74-92.65-1.56-139.23-3.33-67.74,17.46-136.4,57.98-195.06,35.01-50.68,85.03-97.06,92.89-155.35,5.3-39.12-10.22-79-36.42-111.84"/>
        <path class="cls-1" d="m1470.46-271.8c-24.97,29-47.06,63.23-51.12,100.7-2.23,20.73,1.27,41.38,3.51,61.93,7.5,68.74.78,139.2-17.63,207.11,2.43,11.23,4.95,22.56,8.47,33.52,2.76,8.57,6.2,17.02,10.81,25.04,8.12,14.22,19.83,27,26.68,41.86,7.63,16.54,8.79,34.75,22.18,48.14,11.35,11.35,29.57,16.51,47.25,18.64,37.08,4.39,76.39-1.07,107.68-17.79,33.29-17.78,56.48-47.75,65.97-80.86,9.82-34.24,2.13-69.81,1.67-104.84-.64-51.02,15.16-102.53,43.21-147.65,24.69-39.73,58.48-76.98,62.88-121.87,2.99-30.02-8.5-60.46-27.91-85.98"/>
        <path class="cls-1" d="m1524.45-268.91c-12.39,22.67-24.26,47.88-27.61,74.69-1.82,14.65-.9,29.24-.71,43.78.69,48.57-6.58,97.96-18.24,146.2.8,8.03,1.69,16.12,3.13,24.03,1.13,6.16,2.71,12.36,5.01,18.36,4.1,10.68,10.45,20.69,15.29,31.23,5.33,11.61,8.51,23.35,19.13,31.7,8.39,6.6,20.27,9.48,31.89,10.15,24.6,1.33,50.27-4.9,68.82-18.14,21.48-15.32,33.24-38.67,39.3-62.88s3.52-46.96,4.91-70.45c2.06-34.3,12.79-68.73,28.44-100.24,14.32-28.83,31.92-56.89,32.87-88.39.68-20.92-6.78-41.91-19.41-60.13"/>
      </g>
      <path class="cls-1" d="m2176.71,592.05c-18.78,11.12-34.91,28.54-32.9,47.66,2.83,26.93,37.28,41.77,63.62,57.56,50.11,30.04,81.11,77.98,98.35,127.36,16.91,48.43,25.08,103.77,71.22,136.43,40.42,28.6,98.6,30.85,151.42,26.86,63.49-4.8,128.15-17.29,179.68-48.55,51.54-31.25,87.44-84.35,77.95-136.86-3.37-18.65-12.46-36.82-27.69-50.78-25.88-23.71-65.46-32.62-102.77-40.42-86.18-18.03-191.38-24.96-259.52-76.1-61.52-46.17-138.44-90.52-219.36-43.16Z"/>
      <path class="cls-1" d="m2438.36,746.55c-8.59-.75-17.46-1.4-25.72.72-22.31,5.7-30.99,28.7-29.3,48.08,2.34,26.8,17.81,52.01,39.14,72.17,22.34,21.12,52.14,37.62,85.46,42.33,26.53,3.75,53.74-.06,79.88-5.37,57.12-11.62,159.96-80.31,77.08-126.16-22.79-12.6-57.66-10.28-83.59-12.93-47.93-4.89-94.81-14.62-142.95-18.84Z"/>
      <path class="cls-1" d="m3470.21,26.73c-48.69,19.18-104.82,20.41-158.44,16.11-53.62-4.3-106.7-13.75-160.56-14.63-15.82-.26-33.48.88-44.23,10.55-11.13,10.02-10.65,25.7-5.91,38.77,4.74,13.06,13.01,25.28,15.49,38.77,2.63,14.28-1.44,28.76-2.25,43.19-.81,14.43,2.65,30.49,16.3,39.41,21.46,14.03,52.64,2.69,79.78,5.02,30.83,2.65,54.49,22.83,80.35,37.06,58.45,32.15,138.83,34.14,199.47,4.95"/>
      <path class="cls-1" d="m3461.45,80.43c-57.69,19.42-122.36,15.58-184.38,11.36-23.45-1.6-52.2-1.01-63.72,16.08-8.65,12.83-2.26,29.85,10.41,40.11,12.67,10.26,30.13,15.17,47.18,19.03,71.94,16.3,149.76,19.16,220.41-.67"/>
      <g>
        <path class="cls-1" d="m2584.93,56.68c-62.84,17.17-126.64,42.63-162.77,88.77-43.68,55.79-37.17,128.36-23.48,193.98,8.81,42.21,20.19,84.72,44.6,122.43,24.41,37.71,63.51,70.52,112.78,82.8,49.3,12.28,103.62,2.73,148.97-17.53,45.35-20.26,83.11-50.4,118.77-81.3,44.22-38.32,86.33-78.54,122.18-122.52,26.95-33.05,50.53-68.66,62.04-107.45,11.51-38.79,10.11-81.21-11.08-117.05-77.5-131.04-286.98-76.3-412.01-42.13Z"/>
        <path class="cls-1" d="m2909.5,133.72c-72.96-77.15-211.8-47.11-303.5-19.16-45.76,13.84-91.62,33.66-118.15,67.67-29.7,38.08-29.43,86.32-21.8,131.95.58,3.43,1.19,6.85,1.84,10.25,5.95,31.08,14.31,62.44,32.86,89.79,18.74,27.54,48.44,50.33,85.08,58.35,36.66,8.03,76.81.42,110.09-14.99,32.99-15.22,60.47-37.42,86.46-60.22,32.15-28.21,62.5-58.03,89.61-89.56,22.27-25.91,45.75-55.72,56.88-86.85,11.39-31.53,5.91-60.51-19.36-87.23Z"/>
        <path class="cls-1" d="m2822.07,168.64c-45.12-42.35-136.56-17.78-195,3.81-28.65,10.59-56.61,24.68-73.52,46.58-18.78,24.3-21.03,54.39-17.36,83.83.28,2.2.59,4.4.92,6.58,3.09,19.96,8.43,40.15,21.12,57.16,13.07,17.37,33.38,30.14,57.38,33.9,24.02,3.77,50-1.9,71.2-12.44,20.62-10.19,37.84-24.44,54.15-39.14,20.08-18.09,38.85-37.39,57.04-56.61,17.7-18.7,40.9-42.81,51.72-66.25s8.76-47.49-27.64-57.41Z"/>
        <path class="cls-1" d="m2606.33,291.54c-.21,9.72,1.8,20.04,9.38,27.44,14.8,14.43,43.75,10.93,61.98-.45,18.23-11.38,30.06-28.41,46.3-41.72,28.08-23.02,95.54-79.1,10.63-73.25-56.73,3.9-127.17,35.76-128.3,87.98Z"/>
      </g>
      <g>
        <path class="cls-1" d="m3507.66,383.03c-47.09,27.01-111.34,31.77-163.41,12.1-35.88-13.55-66.65-37.84-105.54-43.06-60.47-8.12-113.62,31.93-154.12,70.2-58.61,55.37-113.02,113.82-162.82,174.89-25.2,30.9-49.66,63.35-59.16,99.85-6.93,26.66-5.55,54.27-8.51,81.44-12.59,115.61-106.97,219.02-229.54,274.28-43.26,19.5-94.2,37.33-112.09,75.49-24.4,52.02,27.08,106.3,34.92,161.77,5.19,36.77-9.2,73.23-15.65,109.86-19.93,113.09,42.68,233.52,155.33,298.79,233.74,135.43,511.99,210.91,792.59,251.21"/>
        <path class="cls-1" d="m3511.52,448.77c-41.29,23.2-97.01,27.45-142.61,11.21-31.36-11.19-58.49-31.39-92.38-35.68-52.67-6.67-99.24,26.86-135.17,59.24-52.26,46.92-100.65,97.23-144.66,150.21-22.29,26.82-43.83,55.06-52.73,86.76-4.57,16.27-5.67,32.96-6.96,49.65-.55,7.05-1.14,14.1-2.03,21.11-12.39,95.65-84.35,182.7-178.89,235.16-5.32,2.98-10.72,5.84-16.18,8.6-36.17,18.19-78.78,35.01-94.59,68.58-21.31,45.28,19.81,92.09,24.94,140.06,2.25,21.16-2.63,42.24-7.8,63.39-2.61,10.67-5.29,21.36-7.18,32.07-4.59,25.96-4.19,52.39.5,78.27,13.12,72.61,59.93,141.42,131.87,184.08,55.15,32.78,114.31,60.52,175.3,84.83,164.11,65.38,343.01,106.64,523.01,131.77"/>
        <path class="cls-1" d="m3515.38,514.51c-35.5,19.39-82.67,23.12-121.8,10.31-26.85-8.84-50.33-24.95-79.22-28.3-44.88-5.22-84.8,21.84-116.23,48.28-45.83,38.56-88.27,80.65-126.5,125.54-19.38,22.75-37.99,46.77-46.3,73.67-4.26,13.8-5.69,27.95-7.23,42.13-.66,5.99-1.33,11.98-2.25,17.96-12.87,81.85-71.73,157.15-147.58,205.28-4.29,2.72-8.62,5.39-13.01,7.96-29.08,16.88-63.36,32.68-77.09,61.68-18.22,38.54,12.53,77.89,14.97,118.35,1.05,17.86-3.51,35.7-8.08,53.69-2.32,9.1-4.62,18.22-6.24,27.37-3.94,22.17-3.6,44.75.17,66.88,10.58,62.24,48.35,121.81,109.23,159.03,46.95,28.87,98.68,52.05,151.62,72.27,142.48,54.39,296.98,88.84,452.41,109.71"/>
        <path class="cls-1" d="m3519.24,580.25c-29.7,15.57-68.33,18.8-101,9.41-22.34-6.48-42.17-18.5-66.06-20.92-37.08-3.77-70.4,16.79-97.28,37.32-39.46,30.14-75.9,64.06-108.34,100.86-16.47,18.67-32.15,38.49-39.87,60.58-3.95,11.32-5.72,22.95-7.5,34.6-.76,4.93-1.51,9.88-2.46,14.8-13.14,68.09-59.04,131.79-116.27,175.4-3.26,2.48-6.52,4.95-9.84,7.32-21.96,15.62-47.94,30.35-59.59,54.77-15.13,31.8,5.25,63.68,4.99,96.64-.14,14.57-4.39,29.16-8.35,43.99-2.02,7.53-3.94,15.09-5.3,22.68-3.29,18.37-3.01,37.12-.15,55.49,8.03,51.87,36.85,102.1,86.58,133.98,38.81,24.88,83.04,43.58,127.94,59.71,120.86,43.4,250.95,71.03,381.82,87.65"/>
        <path class="cls-1" d="m3523.1,645.99c-23.91,11.76-54,14.48-80.19,8.52-17.82-4.12-34.02-12.05-52.9-13.54-29.28-2.32-56.02,11.73-78.33,26.36-33.11,21.71-63.52,47.47-90.17,76.19-13.56,14.59-26.31,30.2-33.44,47.49-3.64,8.85-5.74,17.94-7.77,27.08-.87,3.88-1.71,7.77-2.68,11.65-13.6,54.3-46.35,106.52-84.96,145.52-2.22,2.25-4.42,4.51-6.68,6.68-14.86,14.31-32.52,28.03-42.09,47.86-12.04,25.06-2.03,49.48-4.99,74.93-1.34,11.27-5.26,22.62-8.62,34.28-1.73,5.96-3.27,11.95-4.36,17.99-2.63,14.58-2.43,29.48-.47,44.1,5.49,41.49,25.28,82.48,63.94,108.93,30.63,20.96,67.41,35.11,104.27,47.16,99.23,32.41,204.91,53.23,311.22,65.59"/>
        <path class="cls-1" d="m3526.97,711.74c-18.11,7.95-39.67,10.19-59.38,7.62-13.31-1.74-25.86-5.61-39.74-6.16-21.49-.87-41.66,6.64-59.39,15.4-26.8,13.24-51.14,30.88-72.01,51.51-10.64,10.51-20.47,21.92-27.01,34.4-3.33,6.37-5.77,12.93-8.04,19.56-.97,2.82-1.91,5.66-2.89,8.49-14.12,40.51-33.56,81.41-53.65,115.64-1.18,2.02-2.32,4.05-3.51,6.04-7.77,12.98-17.1,25.7-24.59,40.96-8.96,18.32-9.3,35.27-14.96,53.21-2.54,7.97-6.14,16.08-8.9,24.58-1.43,4.38-2.6,8.82-3.42,13.29-1.98,10.78-1.84,21.84-.79,32.7,2.94,31.12,13.7,62.89,41.3,83.88,22.43,17.06,51.78,26.64,80.59,34.6,77.61,21.43,158.88,35.42,240.63,43.53"/>
        <path class="cls-1" d="m3530.83,777.48c-33.1,11.11-71.16,4.59-105.6,12.38-36.39,8.24-65.63,32.2-82.75,60.18-17.12,27.98-23.34,59.74-25.45,91.1-.9,13.36-1.19,27.12-7.44,39.46-8.49,16.77-27.15,29.13-34.11,46.38-3.85,9.55-3.79,19.84-3.6,29.91.4,20.74,2.06,43.37,18.66,58.84,14.18,13.21,36.14,18.17,56.91,22.04,55.99,10.44,112.85,17.62,170.03,21.46"/>
      </g>
    </g>
  </g>
</svg>